name rise43.5482peak65.4966fall89.1036.mot
datacolumns 19
datarows 32
range 15.02826900000000 15.07995000000000
endheader
time	ground_force1_vx	ground_force1_vy	ground_force1_vz	ground_force1_px	ground_force1_py	ground_force1_pz	ground_force2_vx	ground_force2_vy	ground_force2_vz	ground_force2_px	ground_force2_py	ground_force2_pz	ground_torque1_x	ground_torque1_y	ground_torque1_z	ground_torque2_x	ground_torque2_y	ground_torque2_z	
15.02826900000000	-38.18488700000000	790.24317099999996	48.12317800000000	0.10058500000000	0.00000000000000	0.07082800000000	-8.15741800000000	27.34984500000000	3.89816000000000	0.31782900000000	0.00000000000000	-0.10580400000000	0.00000000000000	15.31203100000000	0.00000000000000	0.00000000000000	0.74701200000000	0.00000000000000	
15.02993400000000	-38.54481500000000	788.31651899999997	47.92867000000000	0.09989700000000	0.00000000000000	0.07071900000000	-9.51845900000000	33.44295400000000	4.60159100000000	0.32240900000000	0.00000000000000	-0.10615900000000	0.00000000000000	15.18783600000000	0.00000000000000	0.00000000000000	0.92738600000000	0.00000000000000	
15.03160300000000	-38.92508900000000	786.30168000000003	47.71750500000000	0.09921400000000	0.00000000000000	0.07060700000000	-10.78692900000000	39.72991600000000	5.27696400000000	0.32656700000000	0.00000000000000	-0.10650000000000	0.00000000000000	15.06435700000000	0.00000000000000	0.00000000000000	1.11408900000000	0.00000000000000	
15.03327300000000	-39.32614100000000	784.19735100000003	47.48970400000000	0.09853500000000	0.00000000000000	0.07049200000000	-11.91613900000000	46.08593000000000	5.90242400000000	0.33035700000000	0.00000000000000	-0.10682800000000	0.00000000000000	14.94179400000000	0.00000000000000	0.00000000000000	1.30216300000000	0.00000000000000	
15.03493600000000	-39.74833400000000	782.00213799999995	47.24531000000000	0.09785900000000	0.00000000000000	0.07037300000000	-12.86781900000000	52.40043400000000	6.45955800000000	0.33381900000000	0.00000000000000	-0.10714500000000	0.00000000000000	14.82033800000000	0.00000000000000	0.00000000000000	1.48693600000000	0.00000000000000	
15.03661300000000	-40.19196100000000	779.71455800000001	46.98439200000000	0.09718800000000	0.00000000000000	0.07025100000000	-13.61416800000000	58.58416100000000	6.93438800000000	0.33699200000000	0.00000000000000	-0.10745300000000	0.00000000000000	14.70016800000000	0.00000000000000	0.00000000000000	1.66431100000000	0.00000000000000	
15.03827100000000	-40.65724000000000	777.33303200000000	46.70704100000000	0.09651900000000	0.00000000000000	0.07012600000000	-14.13877400000000	64.57345800000000	7.31788000000000	0.33990500000000	0.00000000000000	-0.10775300000000	0.00000000000000	14.58145600000000	0.00000000000000	0.00000000000000	1.83098000000000	0.00000000000000	
15.03994800000000	-41.14430900000000	774.85589200000004	46.41337500000000	0.09585300000000	0.00000000000000	0.06999800000000	-14.43647200000000	70.33183200000001	7.60596200000000	0.34258400000000	0.00000000000000	-0.10804500000000	0.00000000000000	14.46436000000000	0.00000000000000	0.00000000000000	1.98452800000000	0.00000000000000	
15.04160700000000	-41.65322300000000	772.28137900000002	46.10353200000000	0.09519000000000	0.00000000000000	0.06986600000000	-14.51230200000000	75.84899900000001	7.79914000000000	0.34505400000000	0.00000000000000	-0.10833200000000	0.00000000000000	14.34902600000000	0.00000000000000	0.00000000000000	2.12345500000000	0.00000000000000	
15.04326900000000	-42.18395500000000	769.60764200000006	45.77767300000000	0.09452900000000	0.00000000000000	0.06973200000000	-14.37979900000000	81.13794000000000	7.90179200000000	0.34733200000000	0.00000000000000	-0.10861300000000	0.00000000000000	14.23558700000000	0.00000000000000	0.00000000000000	2.24711100000000	0.00000000000000	
15.04493800000000	-42.73638500000000	766.83274500000005	45.43598200000000	0.09387100000000	0.00000000000000	0.06959400000000	-14.05888300000000	86.23054000000000	7.92127900000000	0.34943700000000	0.00000000000000	-0.10888900000000	0.00000000000000	14.12416600000000	0.00000000000000	0.00000000000000	2.35557600000000	0.00000000000000	
15.04660200000000	-43.31030500000000	763.95466999999996	45.07866100000000	0.09321400000000	0.00000000000000	0.06945300000000	-13.57357900000000	91.17242899999999	7.86694900000000	0.35138300000000	0.00000000000000	-0.10916000000000	0.00000000000000	14.01486600000000	0.00000000000000	0.00000000000000	2.44949700000000	0.00000000000000	
15.04826800000000	-43.90541400000000	760.97131600000000	44.70593600000000	0.09255800000000	0.00000000000000	0.06930900000000	-12.94979700000000	96.01757800000000	7.74916200000000	0.35318300000000	0.00000000000000	-0.10942700000000	0.00000000000000	13.90778100000000	0.00000000000000	0.00000000000000	2.52990700000000	0.00000000000000	
15.04993600000000	-44.52131200000000	757.88050999999996	44.31804900000000	0.09190400000000	0.00000000000000	0.06916200000000	-12.21332800000000	100.82314599999999	7.57839600000000	0.35484800000000	0.00000000000000	-0.10969000000000	0.00000000000000	13.80298600000000	0.00000000000000	0.00000000000000	2.59805300000000	0.00000000000000	
15.05161500000000	-45.15750300000000	754.68000800000004	43.91526300000000	0.09125100000000	0.00000000000000	0.06901200000000	-11.38819500000000	105.64492700000000	7.36448900000000	0.35639000000000	0.00000000000000	-0.10995000000000	0.00000000000000	13.70054400000000	0.00000000000000	0.00000000000000	2.65522400000000	0.00000000000000	
15.05327300000000	-45.81339000000000	751.36750500000005	43.49785900000000	0.09059700000000	0.00000000000000	0.06886000000000	-10.49541000000000	110.53367200000000	7.11607100000000	0.35781600000000	0.00000000000000	-0.11020600000000	0.00000000000000	13.60050000000000	0.00000000000000	0.00000000000000	2.70262500000000	0.00000000000000	
15.05495200000000	-46.48827500000000	747.94063800000004	43.06613500000000	0.08994400000000	0.00000000000000	0.06870400000000	-9.55217600000000	115.53240099999999	6.84017800000000	0.35913500000000	0.00000000000000	-0.11045900000000	0.00000000000000	13.50288500000000	0.00000000000000	0.00000000000000	2.74126300000000	0.00000000000000	
15.05660700000000	-47.18135900000000	744.39699700000006	42.62040500000000	0.08929100000000	0.00000000000000	0.06854700000000	-8.57151200000000	120.67473699999999	6.54205400000000	0.36035400000000	0.00000000000000	-0.11070900000000	0.00000000000000	13.40771300000000	0.00000000000000	0.00000000000000	2.77188700000000	0.00000000000000	
15.05827200000000	-47.89173700000000	740.73413100000005	42.16100100000000	0.08863700000000	0.00000000000000	0.06838600000000	-7.56224600000000	125.98421800000000	6.22512400000000	0.36148000000000	0.00000000000000	-0.11095500000000	0.00000000000000	13.31498100000000	0.00000000000000	0.00000000000000	2.79495300000000	0.00000000000000	
15.05993800000000	-48.61840100000000	736.94955700000003	41.68826900000000	0.08798300000000	0.00000000000000	0.06822300000000	-6.52932900000000	131.47443999999999	5.89110500000000	0.36251700000000	0.00000000000000	-0.11119900000000	0.00000000000000	13.22467300000000	0.00000000000000	0.00000000000000	2.81061800000000	0.00000000000000	
15.06161900000000	-49.36023900000000	733.04077099999995	41.20256800000000	0.08732700000000	0.00000000000000	0.06805800000000	-5.47436200000000	137.14988800000000	5.54022800000000	0.36347200000000	0.00000000000000	-0.11143900000000	0.00000000000000	13.13675300000000	0.00000000000000	0.00000000000000	2.81876600000000	0.00000000000000	
15.06327500000000	-50.11603800000000	729.00525600000003	40.70427500000000	0.08666900000000	0.00000000000000	0.06789100000000	-4.39628900000000	143.00725700000001	5.17152200000000	0.36434900000000	0.00000000000000	-0.11167700000000	0.00000000000000	13.05117200000000	0.00000000000000	0.00000000000000	2.81905000000000	0.00000000000000	
15.06494100000000	-50.88447800000000	724.84049500000003	40.19377700000000	0.08600900000000	0.00000000000000	0.06772100000000	-3.29214000000000	149.03706800000000	4.78314600000000	0.36515100000000	0.00000000000000	-0.11191100000000	0.00000000000000	12.96786400000000	0.00000000000000	0.00000000000000	2.81094400000000	0.00000000000000	
15.06661700000000	-51.66413900000000	720.54397900000004	39.67147400000000	0.08534800000000	0.00000000000000	0.06754900000000	-2.15778500000000	155.22541799999999	4.37271800000000	0.36588400000000	0.00000000000000	-0.11214200000000	0.00000000000000	12.88674800000000	0.00000000000000	0.00000000000000	2.79380400000000	0.00000000000000	
15.06826900000000	-52.45350200000000	716.11322500000006	39.13777800000000	0.08468300000000	0.00000000000000	0.06737600000000	-0.98863300000000	161.55569700000001	3.93762400000000	0.36654900000000	0.00000000000000	-0.11237100000000	0.00000000000000	12.80772800000000	0.00000000000000	0.00000000000000	2.76692800000000	0.00000000000000	
15.06995100000000	-53.25094900000000	711.54578100000003	38.59311300000000	0.08401600000000	0.00000000000000	0.06720000000000	0.21976800000000	168.01015799999999	3.47529500000000	0.36715000000000	0.00000000000000	-0.11259600000000	0.00000000000000	12.73069000000000	0.00000000000000	0.00000000000000	2.72961000000000	0.00000000000000	
15.07161800000000	-54.05476600000000	706.83924600000000	38.03791300000000	0.08334600000000	0.00000000000000	0.06702300000000	1.47126100000000	174.57125199999999	2.98342400000000	0.36769000000000	0.00000000000000	-0.11281800000000	0.00000000000000	12.65551100000000	0.00000000000000	0.00000000000000	2.68118900000000	0.00000000000000	
15.07327400000000	-54.86314500000000	701.99128199999996	37.47262000000000	0.08267200000000	0.00000000000000	0.06684400000000	2.76872600000000	181.22267600000001	2.46013300000000	0.36817200000000	0.00000000000000	-0.11303600000000	0.00000000000000	12.58204900000000	0.00000000000000	0.00000000000000	2.62108500000000	0.00000000000000	
15.07493500000000	-55.67419300000000	696.99962900000003	36.89768800000000	0.08199500000000	0.00000000000000	0.06666400000000	4.11387900000000	187.95010600000001	1.90407100000000	0.36859700000000	0.00000000000000	-0.11325200000000	0.00000000000000	12.51015100000000	0.00000000000000	0.00000000000000	2.54882600000000	0.00000000000000	
15.07660200000000	-56.48592600000000	691.86212100000000	36.31357700000000	0.08131300000000	0.00000000000000	0.06648200000000	5.50718200000000	194.74164099999999	1.31446900000000	0.36896700000000	0.00000000000000	-0.11346400000000	0.00000000000000	12.43965100000000	0.00000000000000	0.00000000000000	2.46406600000000	0.00000000000000	
15.07827400000000	-57.29628300000000	686.57670299999995	35.72075500000000	0.08062700000000	0.00000000000000	0.06629900000000	6.94786500000000	201.58796000000001	0.69114000000000	0.36928500000000	0.00000000000000	-0.11367200000000	0.00000000000000	12.37037100000000	0.00000000000000	0.00000000000000	2.36658800000000	0.00000000000000	
15.07995000000000	-58.10312300000000	681.14144999999996	35.11969800000000	0.07993600000000	0.00000000000000	0.06611500000000	8.43402700000000	208.48225400000001	0.03444100000000	0.36955100000000	0.00000000000000	-0.11387800000000	0.00000000000000	12.30212000000000	0.00000000000000	0.00000000000000	2.25630600000000	0.00000000000000	
